<svg width="130" height="26" fill="none" xmlns="http://www.w3.org/2000/svg"><g clip-path="url(#clip0)" fill="#fff"><path d="M7.899 13.905v7.293h2.06V2.166H6.882c-3.023 0-5.565 1.997-5.565 5.99 0 2.848 1.124 4.391 2.81 5.243L.542 21.198h2.38l3.265-7.293h1.712zm0-1.704H6.802c-1.793 0-3.264-.985-3.264-4.046 0-3.167 1.605-4.258 3.264-4.258h1.097V12.2zm22.711 7.293h-1.07V7.783h-6.261v1.144c0 3.567-.134 7.72-1.365 10.567h-.829v4.34h1.873v-2.636h5.779v2.635h1.872v-4.338zm9.069.799l-.482-1.597c-.535.373-1.471.905-2.648.905-1.66 0-2.515-1.597-2.515-4.631h5.618v-1.145c0-4.552-1.471-6.229-3.719-6.229-2.862 0-4.066 3.141-4.066 7.453 0 4.126 1.712 6.335 4.494 6.335 1.338 0 2.462-.425 3.318-1.091zM17.82 7.783v5.696h-3.103V7.783H12.63v13.415h2.087v-6.016h3.103v6.016h2.06V7.783h-2.06zm29.616 13.415h2.274l-3.825-7.107 3.344-6.308h-2.114l-3.237 6.202V7.783h-2.087v13.415h2.087v-6.681l3.558 6.681zm7.17.186c1.231 0 2.087-.399 2.81-1.011l-.482-1.544c-.482.426-1.258.825-2.274.825-1.686 0-2.488-1.916-2.488-5.27 0-3.38 1.07-5.057 2.568-5.057.856 0 1.659.452 2.22.931l.295-1.97c-.589-.372-1.284-.692-2.488-.692-3.157 0-4.789 2.689-4.789 6.894 0 4.579 1.739 6.894 4.628 6.894zm-27.128-1.89h-3.585c1.124-2.848 1.258-6.973 1.258-9.795v-.24h2.327v10.035zM35.933 9.3c1.204 0 1.579 1.677 1.579 3.966H34.06c.134-2.396.59-3.966 1.873-3.966z"/><path fill-rule="evenodd" clip-rule="evenodd" d="M65.372 2.977C63.916 4.876 63.916 7.584 63.916 13c0 5.416 0 8.124 1.456 10.023a7.439 7.439 0 001.686 1.598C69.061 26 71.919 26 77.634 26h38.106c5.716 0 8.573 0 10.577-1.38a7.435 7.435 0 001.686-1.597c1.455-1.899 1.455-4.607 1.455-10.023 0-5.416 0-8.124-1.455-10.023a7.433 7.433 0 00-1.686-1.598C124.313 0 121.456 0 115.74 0H77.635c-5.716 0-8.574 0-10.577 1.38a7.437 7.437 0 00-1.686 1.597zm44.56 12.333c.275-.74.409-1.523.395-2.31a6.304 6.304 0 00-.395-2.325 5.011 5.011 0 00-1.1-1.698 4.599 4.599 0 00-1.65-1.043 5.92 5.92 0 00-2.053-.35 5.828 5.828 0 00-1.835.283 4.565 4.565 0 00-1.549.834 4.569 4.569 0 00-1.108 1.364 5.67 5.67 0 00-.581 1.855h-1.588V7.785h-2.416v10.43h2.432V13.82h1.549c.065.68.254 1.342.558 1.96a5.047 5.047 0 001.107 1.445c.449.394.976.699 1.549.894a6.09 6.09 0 003.935-.06 4.727 4.727 0 001.65-1.058 5.056 5.056 0 001.1-1.691zm-3.732.967a2.561 2.561 0 01-1.071.21v-.007a2.496 2.496 0 01-1.055-.207 2.405 2.405 0 01-.858-.628 4.98 4.98 0 01-.759-2.637c0-.93.262-1.841.759-2.638a2.41 2.41 0 01.857-.632 2.495 2.495 0 011.056-.21c.37-.006.736.067 1.072.214.336.147.634.364.872.635.502.794.767 1.705.767 2.634 0 .93-.265 1.84-.767 2.634-.238.27-.536.487-.873.633zM84.72 14.49c.179-.874.28-1.761.303-2.652.054-1.095.077-2.451.077-4.068h7.746V18.2H90.42V9.678h-3.15c0 1.379-.078 2.6-.163 3.651a10.84 10.84 0 01-.51 2.682 3.629 3.629 0 01-1.109 1.677c-.55.41-1.234.615-1.928.58h-.65V16.1c.105.007.211.007.317 0a1.17 1.17 0 00.5-.093c.156-.068.296-.168.406-.295a2.93 2.93 0 00.589-1.222zm-3.477-6.705H72.04v10.43h2.417V9.678h4.36v8.539h2.425V7.785zm36.697 10.624a7.004 7.004 0 01-2.323-.372 4.933 4.933 0 01-1.774-1.066 4.621 4.621 0 01-1.131-1.69 6.773 6.773 0 010-4.56 4.621 4.621 0 011.131-1.692 4.934 4.934 0 011.789-1.065 7.225 7.225 0 012.386-.373 7.414 7.414 0 011.967.238c.482.126.938.33 1.348.604v1.93a5.673 5.673 0 00-1.41-.626 6.584 6.584 0 00-1.766-.216c-2.238 0-3.353 1.155-3.353 3.48 0 2.324 1.099 3.479 3.291 3.479a6.275 6.275 0 001.828-.231 6.932 6.932 0 001.41-.589v1.915c-.425.25-.88.447-1.355.588a7.058 7.058 0 01-2.038.246z"/></g><defs><clipPath id="clip0"><path fill="#fff" transform="translate(.542)" d="M0 0h128.917v26H0z"/></clipPath></defs></svg>
