<svg width="100" height="150" fill="none" xmlns="http://www.w3.org/2000/svg"><g clip-path="url(#clip0)"><path fill="#fff" d="M0 0h100v150H0z"/><path fill="#C4C4C4" d="M0 0h512v760H0z"/><path fill="#ECECEC" d="M0 0h100v150H0z"/><path fill-rule="evenodd" clip-rule="evenodd" d="M50.5 97C62.374 97 72 87.374 72 75.5S62.374 54 50.5 54 29 63.626 29 75.5 38.626 97 50.5 97zM59 64.5a5.5 5.5 0 11-11 0 5.5 5.5 0 0111 0zM50.5 78a2.5 2.5 0 100-5 2.5 2.5 0 000 5zm-3 14a5.5 5.5 0 100-11 5.5 5.5 0 000 11zm-8-14a5.5 5.5 0 100-11 5.5 5.5 0 000 11zm27.5.5a5.5 5.5 0 11-11 0 5.5 5.5 0 0111 0z" fill="#D8D8D8"/></g><defs><clipPath id="clip0"><path fill="#fff" d="M0 0h100v150H0z"/></clipPath></defs></svg>