<svg width="24" height="25" viewBox="0 0 24 25" fill="none" xmlns="http://www.w3.org/2000/svg">
<path fill-rule="evenodd" clip-rule="evenodd" d="M12.5 9.49414C12.5 9.90835 12.1642 10.2441 11.75 10.2441H7.25C6.83579 10.2441 6.5 9.90835 6.5 9.49414C6.5 9.07993 6.83579 8.74414 7.25 8.74414H11.75C12.1642 8.74414 12.5 9.07993 12.5 9.49414ZM12.5 12.4941C12.5 12.9084 12.1642 13.2441 11.75 13.2441H7.25C6.83579 13.2441 6.5 12.9084 6.5 12.4941C6.5 12.0799 6.83579 11.7441 7.25 11.7441H11.75C12.1642 11.7441 12.5 12.0799 12.5 12.4941ZM6.5 15.4941C6.5 15.9084 6.83579 16.2441 7.25 16.2441H8.75C9.16421 16.2441 9.5 15.9084 9.5 15.4941C9.5 15.0799 9.16421 14.7441 8.75 14.7441H7.25C6.83579 14.7441 6.5 15.0799 6.5 15.4941Z" fill="white"/>
<path d="M6.5 6.49414H13.5V4.49414H6.5V6.49414ZM5 17.9941V7.99414H3V17.9941H5ZM6.5 21.4941H18V19.4941H6.5V21.4941ZM15 7.99414V9.49414H17V7.99414H15ZM3 17.9941C3 19.9271 4.567 21.4941 6.5 21.4941V19.4941C5.67157 19.4941 5 18.8226 5 17.9941H3ZM13.5 6.49414C14.3284 6.49414 15 7.16571 15 7.99414H17C17 6.06114 15.433 4.49414 13.5 4.49414V6.49414ZM6.5 4.49414C4.567 4.49414 3 6.06114 3 7.99414H5C5 7.16571 5.67157 6.49414 6.5 6.49414V4.49414Z" fill="white"/>
<path d="M16 10.4941V9.49414H15V10.4941H16ZM16 11.4941H17.5V9.49414H16V11.4941ZM17 18.4941V10.4941H15V18.4941H17ZM19 12.9933C19 12.9967 19 13.0002 19 13.0037C19 13.0072 19 13.0107 19 13.0142C19 13.0176 19 13.0211 19 13.0246C19 13.0281 19 13.0316 19 13.0351C19 13.0386 19 13.042 19 13.0455C19 13.049 19 13.0525 19 13.056C19 13.0595 19 13.063 19 13.0665C19 13.07 19 13.0735 19 13.077C19 13.0805 19 13.084 19 13.0875C19 13.091 19 13.0945 19 13.098C19 13.1015 19 13.105 19 13.1085C19 13.112 19 13.1155 19 13.119C19 13.1225 19 13.126 19 13.1295C19 13.133 19 13.1365 19 13.14C19 13.1436 19 13.1471 19 13.1506C19 13.1541 19 13.1576 19 13.1611C19 13.1646 19 13.1681 19 13.1717C19 13.1752 19 13.1787 19 13.1822C19 13.1857 19 13.1892 19 13.1928C19 13.1963 19 13.1998 19 13.2033C19 13.2068 19 13.2104 19 13.2139C19 13.2174 19 13.2209 19 13.2245C19 13.228 19 13.2315 19 13.2351C19 13.2386 19 13.2421 19 13.2456C19 13.2492 19 13.2527 19 13.2562C19 13.2598 19 13.2633 19 13.2668C19 13.2704 19 13.2739 19 13.2774C19 13.281 19 13.2845 19 13.288C19 13.2916 19 13.2951 19 13.2987C19 13.3022 19 13.3057 19 13.3093C19 13.3128 19 13.3164 19 13.3199C19 13.3235 19 13.327 19 13.3305C19 13.3341 19 13.3376 19 13.3412C19 13.3447 19 13.3483 19 13.3518C19 13.3554 19 13.3589 19 13.3625C19 13.366 19 13.3696 19 13.3731C19 13.3767 19 13.3802 19 13.3838C19 13.3874 19 13.3909 19 13.3945C19 13.398 19 13.4016 19 13.4051C19 13.4087 19 13.4123 19 13.4158C19 13.4194 19 13.4229 19 13.4265C19 13.4301 19 13.4336 19 13.4372C19 13.4408 19 13.4443 19 13.4479C19 13.4514 19 13.455 19 13.4586C19 13.4621 19 13.4657 19 13.4693C19 13.4729 19 13.4764 19 13.48C19 13.4836 19 13.4871 19 13.4907C19 13.4943 19 13.4979 19 13.5014C19 13.505 19 13.5086 19 13.5122C19 13.5157 19 13.5193 19 13.5229C19 13.5265 19 13.53 19 13.5336C19 13.5372 19 13.5408 19 13.5444C19 13.5479 19 13.5515 19 13.5551C19 13.5587 19 13.5623 19 13.5659C19 13.5694 19 13.573 19 13.5766C19 13.5802 19 13.5838 19 13.5874C19 13.591 19 13.5946 19 13.5981C19 13.6017 19 13.6053 19 13.6089C19 13.6125 19 13.6161 19 13.6197C19 13.6233 19 13.6269 19 13.6305C19 13.6341 19 13.6377 19 13.6413C19 13.6449 19 13.6485 19 13.6521C19 13.6556 19 13.6592 19 13.6628C19 13.6664 19 13.67 19 13.6736C19 13.6772 19 13.6808 19 13.6844C19 13.6881 19 13.6917 19 13.6953C19 13.6989 19 13.7025 19 13.7061C19 13.7097 19 13.7133 19 13.7169C19 13.7205 19 13.7241 19 13.7277C19 13.7313 19 13.7349 19 13.7385C19 13.7421 19 13.7458 19 13.7494C19 13.753 19 13.7566 19 13.7602C19 13.7638 19 13.7674 19 13.771C19 13.7747 19 13.7783 19 13.7819C19 13.7855 19 13.7891 19 13.7927C19 13.7964 19 13.8 19 13.8036C19 13.8072 19 13.8108 19 13.8145C19 13.8181 19 13.8217 19 13.8253C19 13.8289 19 13.8326 19 13.8362C19 13.8398 19 13.8434 19 13.847C19 13.8507 19 13.8543 19 13.8579C19 13.8615 19 13.8652 19 13.8688C19 13.8724 19 13.8761 19 13.8797C19 13.8833 19 13.8869 19 13.8906C19 13.8942 19 13.8978 19 13.9015C19 13.9051 19 13.9087 19 13.9124C19 13.916 19 13.9196 19 13.9233C19 13.9269 19 13.9305 19 13.9342C19 13.9378 19 13.9414 19 13.9451C19 13.9487 19 13.9523 19 13.956C19 13.9596 19 13.9632 19 13.9669C19 13.9705 19 13.9742 19 13.9778C19 13.9814 19 13.9851 19 13.9887C19 13.9924 19 13.996 19 13.9996C19 14.0033 19 14.0069 19 14.0106C19 14.0142 19 14.0179 19 14.0215C19 14.0252 19 14.0288 19 14.0324C19 14.0361 19 14.0397 19 14.0434C19 14.047 19 14.0507 19 14.0543C19 14.058 19 14.0616 19 14.0653C19 14.0689 19 14.0726 19 14.0762C19 14.0799 19 14.0835 19 14.0872C19 14.0908 19 14.0945 19 14.0981C19 14.1018 19 14.1054 19 14.1091C19 14.1128 19 14.1164 19 14.1201C19 14.1237 19 14.1274 19 14.131C19 14.1347 19 14.1383 19 14.142C19 14.1457 19 14.1493 19 14.153C19 14.1566 19 14.1603 19 14.1639C19 14.1676 19 14.1713 19 14.1749C19 14.1786 19 14.1822 19 14.1859C19 14.1896 19 14.1932 19 14.1969C19 14.2006 19 14.2042 19 14.2079C19 14.2116 19 14.2152 19 14.2189C19 14.2225 19 14.2262 19 14.2299C19 14.2335 19 14.2372 19 14.2409C19 14.2445 19 14.2482 19 14.2519C19 14.2555 19 14.2592 19 14.2629C19 14.2665 19 14.2702 19 14.2739C19 14.2776 19 14.2812 19 14.2849C19 14.2886 19 14.2922 19 14.2959C19 14.2996 19 14.3033 19 14.3069C19 14.3106 19 14.3143 19 14.3179C19 14.3216 19 14.3253 19 14.329C19 14.3326 19 14.3363 19 14.34C19 14.3437 19 14.3473 19 14.351C19 14.3547 19 14.3584 19 14.362C19 14.3657 19 14.3694 19 14.3731C19 14.3768 19 14.3804 19 14.3841C19 14.3878 19 14.3915 19 14.3952C19 14.3988 19 14.4025 19 14.4062C19 14.4099 19 14.4136 19 14.4172C19 14.4209 19 14.4246 19 14.4283C19 14.432 19 14.4356 19 14.4393C19 14.443 19 14.4467 19 14.4504C19 14.4541 19 14.4577 19 14.4614C19 14.4651 19 14.4688 19 14.4725C19 14.4762 19 14.4799 19 14.4835C19 14.4872 19 14.4909 19 14.4946C19 14.4983 19 14.502 19 14.5057C19 14.5093 19 14.513 19 14.5167C19 14.5204 19 14.5241 19 14.5278C19 14.5315 19 14.5352 19 14.5389C19 14.5425 19 14.5462 19 14.5499C19 14.5536 19 14.5573 19 14.561C19 14.5647 19 14.5684 19 14.5721C19 14.5758 19 14.5795 19 14.5831C19 14.5868 19 14.5905 19 14.5942C19 14.5979 19 14.6016 19 14.6053C19 14.609 19 14.6127 19 14.6164C19 14.6201 19 14.6238 19 14.6275C19 14.6312 19 14.6349 19 14.6385C19 14.6422 19 14.6459 19 14.6496C19 14.6533 19 14.657 19 14.6607C19 14.6644 19 14.6681 19 14.6718C19 14.6755 19 14.6792 19 14.6829C19 14.6866 19 14.6903 19 14.694C19 14.6977 19 14.7014 19 14.7051C19 14.7088 19 14.7125 19 14.7162C19 14.7199 19 14.7236 19 14.7273C19 14.731 19 14.7347 19 14.7384C19 14.7421 19 14.7458 19 14.7495C19 14.7532 19 14.7569 19 14.7606C19 14.7643 19 14.768 19 14.7717C19 14.7754 19 14.7791 19 14.7828C19 14.7865 19 14.7902 19 14.7939C19 14.7976 19 14.8013 19 14.805C19 14.8087 19 14.8124 19 14.8161C19 14.8198 19 14.8235 19 14.8272C19 14.831 19 14.8347 19 14.8384C19 14.8421 19 14.8458 19 14.8495C19 14.8532 19 14.8569 19 14.8606C19 14.8643 19 14.868 19 14.8717C19 14.8754 19 14.8791 19 14.8828C19 14.8865 19 14.8902 19 14.8939C19 14.8976 19 14.9014 19 14.9051C19 14.9088 19 14.9125 19 14.9162C19 14.9199 19 14.9236 19 14.9273C19 14.931 19 14.9347 19 14.9384C19 14.9421 19 14.9458 19 14.9495C19 14.9533 19 14.957 19 14.9607C19 14.9644 19 14.9681 19 14.9718C19 14.9755 19 14.9792 19 14.9829C19 14.9866 19 14.9903 19 14.9941C19 14.9978 19 15.0015 19 15.0052C19 15.0089 19 15.0126 19 15.0163C19 15.02 19 15.0237 19 15.0274C19 15.0311 19 15.0349 19 15.0386C19 15.0423 19 15.046 19 15.0497C19 15.0534 19 15.0571 19 15.0608C19 15.0645 19 15.0683 19 15.072C19 15.0757 19 15.0794 19 15.0831C19 15.0868 19 15.0905 19 15.0942C19 15.0979 19 15.1016 19 15.1054C19 15.1091 19 15.1128 19 15.1165C19 15.1202 19 15.1239 19 15.1276C19 15.1313 19 15.1351 19 15.1388C19 15.1425 19 15.1462 19 15.1499C19 15.1536 19 15.1573 19 15.161C19 15.1647 19 15.1685 19 15.1722C19 15.1759 19 15.1796 19 15.1833C19 15.187 19 15.1907 19 15.1944C19 15.1982 19 15.2019 19 15.2056C19 15.2093 19 15.213 19 15.2167C19 15.2204 19 15.2241 19 15.2278C19 15.2316 19 15.2353 19 15.239C19 15.2427 19 15.2464 19 15.2501C19 15.2538 19 15.2575 19 15.2613C19 15.265 19 15.2687 19 15.2724C19 15.2761 19 15.2798 19 15.2835C19 15.2872 19 15.291 19 15.2947C19 15.2984 19 15.3021 19 15.3058C19 15.3095 19 15.3132 19 15.3169C19 15.3207 19 15.3244 19 15.3281C19 15.3318 19 15.3355 19 15.3392C19 15.3429 19 15.3466 19 15.3503C19 15.3541 19 15.3578 19 15.3615C19 15.3652 19 15.3689 19 15.3726C19 15.3763 19 15.38 19 15.3838C19 15.3875 19 15.3912 19 15.3949C19 15.3986 19 15.4023 19 15.406C19 15.4097 19 15.4134 19 15.4172C19 15.4209 19 15.4246 19 15.4283C19 15.432 19 15.4357 19 15.4394C19 15.4431 19 15.4468 19 15.4506C19 15.4543 19 15.458 19 15.4617C19 15.4654 19 15.4691 19 15.4728C19 15.4765 19 15.4802 19 15.4839C19 15.4877 19 15.4914 19 15.4951C19 15.4988 19 15.5025 19 15.5062C19 15.5099 19 15.5136 19 15.5173C19 15.521 19 15.5248 19 15.5285C19 15.5322 19 15.5359 19 15.5396C19 15.5433 19 15.547 19 15.5507C19 15.5544 19 15.5581 19 15.5618C19 15.5655 19 15.5693 19 15.573C19 15.5767 19 15.5804 19 15.5841C19 15.5878 19 15.5915 19 15.5952C19 15.5989 19 15.6026 19 15.6063C19 15.61 19 15.6137 19 15.6175C19 15.6212 19 15.6249 19 15.6286C19 15.6323 19 15.636 19 15.6397C19 15.6434 19 15.6471 19 15.6508C19 15.6545 19 15.6582 19 15.6619C19 15.6656 19 15.6693 19 15.673C19 15.6767 19 15.6804 19 15.6842C19 15.6879 19 15.6916 19 15.6953C19 15.699 19 15.7027 19 15.7064C19 15.7101 19 15.7138 19 15.7175C19 15.7212 19 15.7249 19 15.7286C19 15.7323 19 15.736 19 15.7397C19 15.7434 19 15.7471 19 15.7508C19 15.7545 19 15.7582 19 15.7619C19 15.7656 19 15.7693 19 15.773C19 15.7767 19 15.7804 19 15.7841C19 15.7878 19 15.7915 19 15.7952C19 15.7989 19 15.8026 19 15.8063C19 15.81 19 15.8137 19 15.8174C19 15.8211 19 15.8248 19 15.8285C19 15.8322 19 15.8359 19 15.8396C19 15.8433 19 15.847 19 15.8507C19 15.8544 19 15.8581 19 15.8618C19 15.8655 19 15.8692 19 15.8729C19 15.8766 19 15.8803 19 15.884C19 15.8877 19 15.8913 19 15.895C19 15.8987 19 15.9024 19 15.9061C19 15.9098 19 15.9135 19 15.9172C19 15.9209 19 15.9246 19 15.9283C19 15.932 19 15.9357 19 15.9394C19 15.9431 19 15.9467 19 15.9504C19 15.9541 19 15.9578 19 15.9615C19 15.9652 19 15.9689 19 15.9726C19 15.9763 19 15.98 19 15.9837C19 15.9873 19 15.991 19 15.9947C19 15.9984 19 16.0021 19 16.0058C19 16.0095 19 16.0132 19 16.0168C19 16.0205 19 16.0242 19 16.0279C19 16.0316 19 16.0353 19 16.039C19 16.0427 19 16.0463 19 16.05C19 16.0537 19 16.0574 19 16.0611C19 16.0648 19 16.0684 19 16.0721C19 16.0758 19 16.0795 19 16.0832C19 16.0869 19 16.0905 19 16.0942C19 16.0979 19 16.1016 19 16.1053C19 16.1089 19 16.1126 19 16.1163C19 16.12 19 16.1237 19 16.1274C19 16.131 19 16.1347 19 16.1384C19 16.1421 19 16.1457 19 16.1494C19 16.1531 19 16.1568 19 16.1605C19 16.1641 19 16.1678 19 16.1715C19 16.1752 19 16.1788 19 16.1825C19 16.1862 19 16.1899 19 16.1935C19 16.1972 19 16.2009 19 16.2046C19 16.2082 19 16.2119 19 16.2156C19 16.2192 19 16.2229 19 16.2266C19 16.2303 19 16.2339 19 16.2376C19 16.2413 19 16.2449 19 16.2486C19 16.2523 19 16.2559 19 16.2596C19 16.2633 19 16.267 19 16.2706C19 16.2743 19 16.278 19 16.2816C19 16.2853 19 16.289 19 16.2926C19 16.2963 19 16.3 19 16.3036C19 16.3073 19 16.3109 19 16.3146C19 16.3183 19 16.3219 19 16.3256C19 16.3293 19 16.3329 19 16.3366C19 16.3402 19 16.3439 19 16.3476C19 16.3512 19 16.3549 19 16.3585C19 16.3622 19 16.3659 19 16.3695C19 16.3732 19 16.3768 19 16.3805C19 16.3842 19 16.3878 19 16.3915C19 16.3951 19 16.3988 19 16.4024C19 16.4061 19 16.4097 19 16.4134C19 16.417 19 16.4207 19 16.4244C19 16.428 19 16.4317 19 16.4353C19 16.439 19 16.4426 19 16.4463C19 16.4499 19 16.4536 19 16.4572C19 16.4609 19 16.4645 19 16.4682C19 16.4718 19 16.4755 19 16.4791C19 16.4827 19 16.4864 19 16.49C19 16.4937 19 16.4973 19 16.501C19 16.5046 19 16.5083 19 16.5119C19 16.5156 19 16.5192 19 16.5228C19 16.5265 19 16.5301 19 16.5338C19 16.5374 19 16.541 19 16.5447C19 16.5483 19 16.552 19 16.5556C19 16.5592 19 16.5629 19 16.5665C19 16.5701 19 16.5738 19 16.5774C19 16.5811 19 16.5847 19 16.5883C19 16.592 19 16.5956 19 16.5992C19 16.6029 19 16.6065 19 16.6101C19 16.6138 19 16.6174 19 16.621C19 16.6246 19 16.6283 19 16.6319C19 16.6355 19 16.6392 19 16.6428C19 16.6464 19 16.65 19 16.6537C19 16.6573 19 16.6609 19 16.6646C19 16.6682 19 16.6718 19 16.6754C19 16.6791 19 16.6827 19 16.6863C19 16.6899 19 16.6935 19 16.6972C19 16.7008 19 16.7044 19 16.708C19 16.7116 19 16.7153 19 16.7189C19 16.7225 19 16.7261 19 16.7297C19 16.7333 19 16.737 19 16.7406C19 16.7442 19 16.7478 19 16.7514C19 16.755 19 16.7587 19 16.7623C19 16.7659 19 16.7695 19 16.7731C19 16.7767 19 16.7803 19 16.7839C19 16.7875 19 16.7911 19 16.7948C19 16.7984 19 16.802 19 16.8056C19 16.8092 19 16.8128 19 16.8164C19 16.82 19 16.8236 19 16.8272C19 16.8308 19 16.8344 19 16.838C19 16.8416 19 16.8452 19 16.8488C19 16.8524 19 16.856 19 16.8596C19 16.8632 19 16.8668 19 16.8704C19 16.874 19 16.8776 19 16.8812C19 16.8848 19 16.8884 19 16.892C19 16.8956 19 16.8992 19 16.9028C19 16.9064 19 16.91 19 16.9135C19 16.9171 19 16.9207 19 16.9243C19 16.9279 19 16.9315 19 16.9351C19 16.9387 19 16.9423 19 16.9458C19 16.9494 19 16.953 19 16.9566C19 16.9602 19 16.9638 19 16.9673C19 16.9709 19 16.9745 19 16.9781C19 16.9817 19 16.9852 19 16.9888C19 16.9924 19 16.996 19 16.9996C19 17.0031 19 17.0067 19 17.0103C19 17.0139 19 17.0174 19 17.021C19 17.0246 19 17.0282 19 17.0317C19 17.0353 19 17.0389 19 17.0425C19 17.046 19 17.0496 19 17.0532C19 17.0567 19 17.0603 19 17.0639C19 17.0674 19 17.071 19 17.0746C19 17.0781 19 17.0817 19 17.0853C19 17.0888 19 17.0924 19 17.0959C19 17.0995 19 17.1031 19 17.1066C19 17.1102 19 17.1138 19 17.1173C19 17.1209 19 17.1244 19 17.128C19 17.1315 19 17.1351 19 17.1386C19 17.1422 19 17.1458 19 17.1493C19 17.1529 19 17.1564 19 17.16C19 17.1635 19 17.1671 19 17.1706C19 17.1742 19 17.1777 19 17.1813C19 17.1848 19 17.1884 19 17.1919C19 17.1954 19 17.199 19 17.2025C19 17.2061 19 17.2096 19 17.2132C19 17.2167 19 17.2202 19 17.2238C19 17.2273 19 17.2309 19 17.2344C19 17.2379 19 17.2415 19 17.245C19 17.2485 19 17.2521 19 17.2556C19 17.2591 19 17.2627 19 17.2662C19 17.2697 19 17.2733 19 17.2768C19 17.2803 19 17.2839 19 17.2874C19 17.2909 19 17.2944 19 17.298C19 17.3015 19 17.305 19 17.3085C19 17.3121 19 17.3156 19 17.3191C19 17.3226 19 17.3261 19 17.3297C19 17.3332 19 17.3367 19 17.3402C19 17.3437 19 17.3473 19 17.3508C19 17.3543 19 17.3578 19 17.3613C19 17.3648 19 17.3683 19 17.3719C19 17.3754 19 17.3789 19 17.3824C19 17.3859 19 17.3894 19 17.3929C19 17.3964 19 17.3999 19 17.4034C19 17.4069 19 17.4104 19 17.4139C19 17.4174 19 17.4209 19 17.4244C19 17.4279 19 17.4314 19 17.4349C19 17.4384 19 17.4419 19 17.4454C19 17.4489 19 17.4524 19 17.4559C19 17.4594 19 17.4629 19 17.4664C19 17.4699 19 17.4734 19 17.4769C19 17.4804 19 17.4839 19 17.4873C19 17.4908 19 17.4943 19 17.4978C19 17.5013 19 17.5048 19 17.5083C19 17.5117 19 17.5152 19 17.5187C19 17.5222 19 17.5257 19 17.5291C19 17.5326 19 17.5361 19 17.5396C19 17.5431 19 17.5465 19 17.55C19 17.5535 19 17.557 19 17.5604C19 17.5639 19 17.5674 19 17.5708C19 17.5743 19 17.5778 19 17.5812C19 17.5847 19 17.5882 19 17.5916C19 17.5951 19 17.5986 19 17.602C19 17.6055 19 17.609 19 17.6124C19 17.6159 19 17.6193 19 17.6228C19 17.6263 19 17.6297 19 17.6332C19 17.6366 19 17.6401 19 17.6435C19 17.647 19 17.6504 19 17.6539C19 17.6573 19 17.6608 19 17.6642C19 17.6677 19 17.6711 19 17.6746C19 17.678 19 17.6815 19 17.6849C19 17.6884 19 17.6918 19 17.6953C19 17.6987 19 17.7021 19 17.7056C19 17.709 19 17.7124 19 17.7159C19 17.7193 19 17.7228 19 17.7262C19 17.7296 19 17.7331 19 17.7365C19 17.7399 19 17.7434 19 17.7468C19 17.7502 19 17.7536 19 17.7571C19 17.7605 19 17.7639 19 17.7673C19 17.7708 19 17.7742 19 17.7776C19 17.781 19 17.7845 19 17.7879C19 17.7913 19 17.7947 19 17.7981C19 17.8016 19 17.805 19 17.8084C19 17.8118 19 17.8152 19 17.8186C19 17.822 19 17.8254 19 17.8289C19 17.8323 19 17.8357 19 17.8391C19 17.8425 19 17.8459 19 17.8493C19 17.8527 19 17.8561 19 17.8595C19 17.8629 19 17.8663 19 17.8697C19 17.8731 19 17.8765 19 17.8799C19 17.8833 19 17.8867 19 17.8901C19 17.8935 19 17.8969 19 17.9003C19 17.9037 19 17.907 19 17.9104C19 17.9138 19 17.9172 19 17.9206C19 17.924 19 17.9274 19 17.9307C19 17.9341 19 17.9375 19 17.9409C19 17.9443 19 17.9477 19 17.951C19 17.9544 19 17.9578 19 17.9612C19 17.9645 19 17.9679 19 17.9713C19 17.9747 19 17.978 19 17.9814C19 17.9848 19 17.9881 19 17.9915C19 17.9949 19 17.9982 19 18.0016C19 18.005 19 18.0083 19 18.0117C19 18.0151 19 18.0184 19 18.0218C19 18.0251 19 18.0285 19 18.0318C19 18.0352 19 18.0386 19 18.0419C19 18.0453 19 18.0486 19 18.052C19 18.0553 19 18.0587 19 18.062C19 18.0654 19 18.0687 19 18.0721C19 18.0754 19 18.0787 19 18.0821C19 18.0854 19 18.0888 19 18.0921C19 18.0954 19 18.0988 19 18.1021C19 18.1055 19 18.1088 19 18.1121C19 18.1155 19 18.1188 19 18.1221C19 18.1255 19 18.1288 19 18.1321C19 18.1354 19 18.1388 19 18.1421C19 18.1454 19 18.1487 19 18.1521C19 18.1554 19 18.1587 19 18.162C19 18.1653 19 18.1687 19 18.172C19 18.1753 19 18.1786 19 18.1819C19 18.1852 19 18.1885 19 18.1919C19 18.1952 19 18.1985 19 18.2018C19 18.2051 19 18.2084 19 18.2117C19 18.215 19 18.2183 19 18.2216C19 18.2249 19 18.2282 19 18.2315C19 18.2348 19 18.2381 19 18.2414C19 18.2447 19 18.248 19 18.2513C19 18.2546 19 18.2579 19 18.2612C19 18.2644 19 18.2677 19 18.271C19 18.2743 19 18.2776 19 18.2809C19 18.2842 19 18.2874 19 18.2907C19 18.294 19 18.2973 19 18.3006C19 18.3038 19 18.3071 19 18.3104C19 18.3137 19 18.3169 19 18.3202C19 18.3235 19 18.3267 19 18.33C19 18.3333 19 18.3366 19 18.3398C19 18.3431 19 18.3463 19 18.3496C19 18.3529 19 18.3561 19 18.3594C19 18.3626 19 18.3659 19 18.3692C19 18.3724 19 18.3757 19 18.3789C19 18.3822 19 18.3854 19 18.3887C19 18.3919 19 18.3952 19 18.3984C19 18.4017 19 18.4049 19 18.4082C19 18.4114 19 18.4146 19 18.4179C19 18.4211 19 18.4244 19 18.4276C19 18.4308 19 18.4341 19 18.4373C19 18.4405 19 18.4438 19 18.447C19 18.4502 19 18.4535 19 18.4567C19 18.4599 19 18.4631 19 18.4664C19 18.4696 19 18.4728 19 18.476C19 18.4792 19 18.4825 19 18.4857C19 18.4889 19 18.4921 19 18.4953H21C21 18.4921 21 18.4889 21 18.4857C21 18.4825 21 18.4792 21 18.476C21 18.4728 21 18.4696 21 18.4664C21 18.4631 21 18.4599 21 18.4567C21 18.4535 21 18.4502 21 18.447C21 18.4438 21 18.4405 21 18.4373C21 18.4341 21 18.4308 21 18.4276C21 18.4244 21 18.4211 21 18.4179C21 18.4146 21 18.4114 21 18.4082C21 18.4049 21 18.4017 21 18.3984C21 18.3952 21 18.3919 21 18.3887C21 18.3854 21 18.3822 21 18.3789C21 18.3757 21 18.3724 21 18.3692C21 18.3659 21 18.3626 21 18.3594C21 18.3561 21 18.3529 21 18.3496C21 18.3463 21 18.3431 21 18.3398C21 18.3366 21 18.3333 21 18.33C21 18.3267 21 18.3235 21 18.3202C21 18.3169 21 18.3137 21 18.3104C21 18.3071 21 18.3038 21 18.3006C21 18.2973 21 18.294 21 18.2907C21 18.2874 21 18.2842 21 18.2809C21 18.2776 21 18.2743 21 18.271C21 18.2677 21 18.2644 21 18.2612C21 18.2579 21 18.2546 21 18.2513C21 18.248 21 18.2447 21 18.2414C21 18.2381 21 18.2348 21 18.2315C21 18.2282 21 18.2249 21 18.2216C21 18.2183 21 18.215 21 18.2117C21 18.2084 21 18.2051 21 18.2018C21 18.1985 21 18.1952 21 18.1919C21 18.1885 21 18.1852 21 18.1819C21 18.1786 21 18.1753 21 18.172C21 18.1687 21 18.1653 21 18.162C21 18.1587 21 18.1554 21 18.1521C21 18.1487 21 18.1454 21 18.1421C21 18.1388 21 18.1354 21 18.1321C21 18.1288 21 18.1255 21 18.1221C21 18.1188 21 18.1155 21 18.1121C21 18.1088 21 18.1055 21 18.1021C21 18.0988 21 18.0954 21 18.0921C21 18.0888 21 18.0854 21 18.0821C21 18.0787 21 18.0754 21 18.0721C21 18.0687 21 18.0654 21 18.062C21 18.0587 21 18.0553 21 18.052C21 18.0486 21 18.0453 21 18.0419C21 18.0386 21 18.0352 21 18.0318C21 18.0285 21 18.0251 21 18.0218C21 18.0184 21 18.0151 21 18.0117C21 18.0083 21 18.005 21 18.0016C21 17.9982 21 17.9949 21 17.9915C21 17.9881 21 17.9848 21 17.9814C21 17.978 21 17.9747 21 17.9713C21 17.9679 21 17.9645 21 17.9612C21 17.9578 21 17.9544 21 17.951C21 17.9477 21 17.9443 21 17.9409C21 17.9375 21 17.9341 21 17.9307C21 17.9274 21 17.924 21 17.9206C21 17.9172 21 17.9138 21 17.9104C21 17.907 21 17.9037 21 17.9003C21 17.8969 21 17.8935 21 17.8901C21 17.8867 21 17.8833 21 17.8799C21 17.8765 21 17.8731 21 17.8697C21 17.8663 21 17.8629 21 17.8595C21 17.8561 21 17.8527 21 17.8493C21 17.8459 21 17.8425 21 17.8391C21 17.8357 21 17.8323 21 17.8289C21 17.8254 21 17.822 21 17.8186C21 17.8152 21 17.8118 21 17.8084C21 17.805 21 17.8016 21 17.7981C21 17.7947 21 17.7913 21 17.7879C21 17.7845 21 17.781 21 17.7776C21 17.7742 21 17.7708 21 17.7673C21 17.7639 21 17.7605 21 17.7571C21 17.7536 21 17.7502 21 17.7468C21 17.7434 21 17.7399 21 17.7365C21 17.7331 21 17.7296 21 17.7262C21 17.7228 21 17.7193 21 17.7159C21 17.7124 21 17.709 21 17.7056C21 17.7021 21 17.6987 21 17.6953C21 17.6918 21 17.6884 21 17.6849C21 17.6815 21 17.678 21 17.6746C21 17.6711 21 17.6677 21 17.6642C21 17.6608 21 17.6573 21 17.6539C21 17.6504 21 17.647 21 17.6435C21 17.6401 21 17.6366 21 17.6332C21 17.6297 21 17.6263 21 17.6228C21 17.6193 21 17.6159 21 17.6124C21 17.609 21 17.6055 21 17.602C21 17.5986 21 17.5951 21 17.5916C21 17.5882 21 17.5847 21 17.5812C21 17.5778 21 17.5743 21 17.5708C21 17.5674 21 17.5639 21 17.5604C21 17.557 21 17.5535 21 17.55C21 17.5465 21 17.5431 21 17.5396C21 17.5361 21 17.5326 21 17.5291C21 17.5257 21 17.5222 21 17.5187C21 17.5152 21 17.5117 21 17.5083C21 17.5048 21 17.5013 21 17.4978C21 17.4943 21 17.4908 21 17.4873C21 17.4839 21 17.4804 21 17.4769C21 17.4734 21 17.4699 21 17.4664C21 17.4629 21 17.4594 21 17.4559C21 17.4524 21 17.4489 21 17.4454C21 17.4419 21 17.4384 21 17.4349C21 17.4314 21 17.4279 21 17.4244C21 17.4209 21 17.4174 21 17.4139C21 17.4104 21 17.4069 21 17.4034C21 17.3999 21 17.3964 21 17.3929C21 17.3894 21 17.3859 21 17.3824C21 17.3789 21 17.3754 21 17.3719C21 17.3683 21 17.3648 21 17.3613C21 17.3578 21 17.3543 21 17.3508C21 17.3473 21 17.3437 21 17.3402C21 17.3367 21 17.3332 21 17.3297C21 17.3261 21 17.3226 21 17.3191C21 17.3156 21 17.3121 21 17.3085C21 17.305 21 17.3015 21 17.298C21 17.2944 21 17.2909 21 17.2874C21 17.2839 21 17.2803 21 17.2768C21 17.2733 21 17.2697 21 17.2662C21 17.2627 21 17.2591 21 17.2556C21 17.2521 21 17.2485 21 17.245C21 17.2415 21 17.2379 21 17.2344C21 17.2309 21 17.2273 21 17.2238C21 17.2202 21 17.2167 21 17.2132C21 17.2096 21 17.2061 21 17.2025C21 17.199 21 17.1954 21 17.1919C21 17.1884 21 17.1848 21 17.1813C21 17.1777 21 17.1742 21 17.1706C21 17.1671 21 17.1635 21 17.16C21 17.1564 21 17.1529 21 17.1493C21 17.1458 21 17.1422 21 17.1386C21 17.1351 21 17.1315 21 17.128C21 17.1244 21 17.1209 21 17.1173C21 17.1138 21 17.1102 21 17.1066C21 17.1031 21 17.0995 21 17.0959C21 17.0924 21 17.0888 21 17.0853C21 17.0817 21 17.0781 21 17.0746C21 17.071 21 17.0674 21 17.0639C21 17.0603 21 17.0567 21 17.0532C21 17.0496 21 17.046 21 17.0425C21 17.0389 21 17.0353 21 17.0317C21 17.0282 21 17.0246 21 17.021C21 17.0174 21 17.0139 21 17.0103C21 17.0067 21 17.0031 21 16.9996C21 16.996 21 16.9924 21 16.9888C21 16.9852 21 16.9817 21 16.9781C21 16.9745 21 16.9709 21 16.9673C21 16.9638 21 16.9602 21 16.9566C21 16.953 21 16.9494 21 16.9458C21 16.9423 21 16.9387 21 16.9351C21 16.9315 21 16.9279 21 16.9243C21 16.9207 21 16.9171 21 16.9135C21 16.91 21 16.9064 21 16.9028C21 16.8992 21 16.8956 21 16.892C21 16.8884 21 16.8848 21 16.8812C21 16.8776 21 16.874 21 16.8704C21 16.8668 21 16.8632 21 16.8596C21 16.856 21 16.8524 21 16.8488C21 16.8452 21 16.8416 21 16.838C21 16.8344 21 16.8308 21 16.8272C21 16.8236 21 16.82 21 16.8164C21 16.8128 21 16.8092 21 16.8056C21 16.802 21 16.7984 21 16.7948C21 16.7911 21 16.7875 21 16.7839C21 16.7803 21 16.7767 21 16.7731C21 16.7695 21 16.7659 21 16.7623C21 16.7587 21 16.755 21 16.7514C21 16.7478 21 16.7442 21 16.7406C21 16.737 21 16.7333 21 16.7297C21 16.7261 21 16.7225 21 16.7189C21 16.7153 21 16.7116 21 16.708C21 16.7044 21 16.7008 21 16.6972C21 16.6935 21 16.6899 21 16.6863C21 16.6827 21 16.6791 21 16.6754C21 16.6718 21 16.6682 21 16.6646C21 16.6609 21 16.6573 21 16.6537C21 16.65 21 16.6464 21 16.6428C21 16.6392 21 16.6355 21 16.6319C21 16.6283 21 16.6246 21 16.621C21 16.6174 21 16.6138 21 16.6101C21 16.6065 21 16.6029 21 16.5992C21 16.5956 21 16.592 21 16.5883C21 16.5847 21 16.5811 21 16.5774C21 16.5738 21 16.5701 21 16.5665C21 16.5629 21 16.5592 21 16.5556C21 16.552 21 16.5483 21 16.5447C21 16.541 21 16.5374 21 16.5338C21 16.5301 21 16.5265 21 16.5228C21 16.5192 21 16.5156 21 16.5119C21 16.5083 21 16.5046 21 16.501C21 16.4973 21 16.4937 21 16.49C21 16.4864 21 16.4827 21 16.4791C21 16.4755 21 16.4718 21 16.4682C21 16.4645 21 16.4609 21 16.4572C21 16.4536 21 16.4499 21 16.4463C21 16.4426 21 16.439 21 16.4353C21 16.4317 21 16.428 21 16.4244C21 16.4207 21 16.417 21 16.4134C21 16.4097 21 16.4061 21 16.4024C21 16.3988 21 16.3951 21 16.3915C21 16.3878 21 16.3842 21 16.3805C21 16.3768 21 16.3732 21 16.3695C21 16.3659 21 16.3622 21 16.3585C21 16.3549 21 16.3512 21 16.3476C21 16.3439 21 16.3402 21 16.3366C21 16.3329 21 16.3293 21 16.3256C21 16.3219 21 16.3183 21 16.3146C21 16.3109 21 16.3073 21 16.3036C21 16.3 21 16.2963 21 16.2926C21 16.289 21 16.2853 21 16.2816C21 16.278 21 16.2743 21 16.2706C21 16.267 21 16.2633 21 16.2596C21 16.2559 21 16.2523 21 16.2486C21 16.2449 21 16.2413 21 16.2376C21 16.2339 21 16.2303 21 16.2266C21 16.2229 21 16.2192 21 16.2156C21 16.2119 21 16.2082 21 16.2046C21 16.2009 21 16.1972 21 16.1935C21 16.1899 21 16.1862 21 16.1825C21 16.1788 21 16.1752 21 16.1715C21 16.1678 21 16.1641 21 16.1605C21 16.1568 21 16.1531 21 16.1494C21 16.1457 21 16.1421 21 16.1384C21 16.1347 21 16.131 21 16.1274C21 16.1237 21 16.12 21 16.1163C21 16.1126 21 16.1089 21 16.1053C21 16.1016 21 16.0979 21 16.0942C21 16.0905 21 16.0869 21 16.0832C21 16.0795 21 16.0758 21 16.0721C21 16.0684 21 16.0648 21 16.0611C21 16.0574 21 16.0537 21 16.05C21 16.0463 21 16.0427 21 16.039C21 16.0353 21 16.0316 21 16.0279C21 16.0242 21 16.0205 21 16.0168C21 16.0132 21 16.0095 21 16.0058C21 16.0021 21 15.9984 21 15.9947C21 15.991 21 15.9873 21 15.9837C21 15.98 21 15.9763 21 15.9726C21 15.9689 21 15.9652 21 15.9615C21 15.9578 21 15.9541 21 15.9504C21 15.9467 21 15.9431 21 15.9394C21 15.9357 21 15.932 21 15.9283C21 15.9246 21 15.9209 21 15.9172C21 15.9135 21 15.9098 21 15.9061C21 15.9024 21 15.8987 21 15.895C21 15.8913 21 15.8877 21 15.884C21 15.8803 21 15.8766 21 15.8729C21 15.8692 21 15.8655 21 15.8618C21 15.8581 21 15.8544 21 15.8507C21 15.847 21 15.8433 21 15.8396C21 15.8359 21 15.8322 21 15.8285C21 15.8248 21 15.8211 21 15.8174C21 15.8137 21 15.81 21 15.8063C21 15.8026 21 15.7989 21 15.7952C21 15.7915 21 15.7878 21 15.7841C21 15.7804 21 15.7767 21 15.773C21 15.7693 21 15.7656 21 15.7619C21 15.7582 21 15.7545 21 15.7508C21 15.7471 21 15.7434 21 15.7397C21 15.736 21 15.7323 21 15.7286C21 15.7249 21 15.7212 21 15.7175C21 15.7138 21 15.7101 21 15.7064C21 15.7027 21 15.699 21 15.6953C21 15.6916 21 15.6879 21 15.6842C21 15.6804 21 15.6767 21 15.673C21 15.6693 21 15.6656 21 15.6619C21 15.6582 21 15.6545 21 15.6508C21 15.6471 21 15.6434 21 15.6397C21 15.636 21 15.6323 21 15.6286C21 15.6249 21 15.6212 21 15.6175C21 15.6137 21 15.61 21 15.6063C21 15.6026 21 15.5989 21 15.5952C21 15.5915 21 15.5878 21 15.5841C21 15.5804 21 15.5767 21 15.573C21 15.5693 21 15.5655 21 15.5618C21 15.5581 21 15.5544 21 15.5507C21 15.547 21 15.5433 21 15.5396C21 15.5359 21 15.5322 21 15.5285C21 15.5248 21 15.521 21 15.5173C21 15.5136 21 15.5099 21 15.5062C21 15.5025 21 15.4988 21 15.4951C21 15.4914 21 15.4877 21 15.4839C21 15.4802 21 15.4765 21 15.4728C21 15.4691 21 15.4654 21 15.4617C21 15.458 21 15.4543 21 15.4506C21 15.4468 21 15.4431 21 15.4394C21 15.4357 21 15.432 21 15.4283C21 15.4246 21 15.4209 21 15.4172C21 15.4134 21 15.4097 21 15.406C21 15.4023 21 15.3986 21 15.3949C21 15.3912 21 15.3875 21 15.3838C21 15.38 21 15.3763 21 15.3726C21 15.3689 21 15.3652 21 15.3615C21 15.3578 21 15.3541 21 15.3503C21 15.3466 21 15.3429 21 15.3392C21 15.3355 21 15.3318 21 15.3281C21 15.3244 21 15.3207 21 15.3169C21 15.3132 21 15.3095 21 15.3058C21 15.3021 21 15.2984 21 15.2947C21 15.291 21 15.2872 21 15.2835C21 15.2798 21 15.2761 21 15.2724C21 15.2687 21 15.265 21 15.2613C21 15.2575 21 15.2538 21 15.2501C21 15.2464 21 15.2427 21 15.239C21 15.2353 21 15.2316 21 15.2278C21 15.2241 21 15.2204 21 15.2167C21 15.213 21 15.2093 21 15.2056C21 15.2019 21 15.1982 21 15.1944C21 15.1907 21 15.187 21 15.1833C21 15.1796 21 15.1759 21 15.1722C21 15.1685 21 15.1647 21 15.161C21 15.1573 21 15.1536 21 15.1499C21 15.1462 21 15.1425 21 15.1388C21 15.1351 21 15.1313 21 15.1276C21 15.1239 21 15.1202 21 15.1165C21 15.1128 21 15.1091 21 15.1054C21 15.1016 21 15.0979 21 15.0942C21 15.0905 21 15.0868 21 15.0831C21 15.0794 21 15.0757 21 15.072C21 15.0683 21 15.0645 21 15.0608C21 15.0571 21 15.0534 21 15.0497C21 15.046 21 15.0423 21 15.0386C21 15.0349 21 15.0311 21 15.0274C21 15.0237 21 15.02 21 15.0163C21 15.0126 21 15.0089 21 15.0052C21 15.0015 21 14.9978 21 14.9941C21 14.9903 21 14.9866 21 14.9829C21 14.9792 21 14.9755 21 14.9718C21 14.9681 21 14.9644 21 14.9607C21 14.957 21 14.9533 21 14.9495C21 14.9458 21 14.9421 21 14.9384C21 14.9347 21 14.931 21 14.9273C21 14.9236 21 14.9199 21 14.9162C21 14.9125 21 14.9088 21 14.9051C21 14.9014 21 14.8976 21 14.8939C21 14.8902 21 14.8865 21 14.8828C21 14.8791 21 14.8754 21 14.8717C21 14.868 21 14.8643 21 14.8606C21 14.8569 21 14.8532 21 14.8495C21 14.8458 21 14.8421 21 14.8384C21 14.8347 21 14.831 21 14.8272C21 14.8235 21 14.8198 21 14.8161C21 14.8124 21 14.8087 21 14.805C21 14.8013 21 14.7976 21 14.7939C21 14.7902 21 14.7865 21 14.7828C21 14.7791 21 14.7754 21 14.7717C21 14.768 21 14.7643 21 14.7606C21 14.7569 21 14.7532 21 14.7495C21 14.7458 21 14.7421 21 14.7384C21 14.7347 21 14.731 21 14.7273C21 14.7236 21 14.7199 21 14.7162C21 14.7125 21 14.7088 21 14.7051C21 14.7014 21 14.6977 21 14.694C21 14.6903 21 14.6866 21 14.6829C21 14.6792 21 14.6755 21 14.6718C21 14.6681 21 14.6644 21 14.6607C21 14.657 21 14.6533 21 14.6496C21 14.6459 21 14.6422 21 14.6385C21 14.6349 21 14.6312 21 14.6275C21 14.6238 21 14.6201 21 14.6164C21 14.6127 21 14.609 21 14.6053C21 14.6016 21 14.5979 21 14.5942C21 14.5905 21 14.5868 21 14.5831C21 14.5795 21 14.5758 21 14.5721C21 14.5684 21 14.5647 21 14.561C21 14.5573 21 14.5536 21 14.5499C21 14.5462 21 14.5425 21 14.5389C21 14.5352 21 14.5315 21 14.5278C21 14.5241 21 14.5204 21 14.5167C21 14.513 21 14.5093 21 14.5057C21 14.502 21 14.4983 21 14.4946C21 14.4909 21 14.4872 21 14.4835C21 14.4799 21 14.4762 21 14.4725C21 14.4688 21 14.4651 21 14.4614C21 14.4577 21 14.4541 21 14.4504C21 14.4467 21 14.443 21 14.4393C21 14.4356 21 14.432 21 14.4283C21 14.4246 21 14.4209 21 14.4172C21 14.4136 21 14.4099 21 14.4062C21 14.4025 21 14.3988 21 14.3952C21 14.3915 21 14.3878 21 14.3841C21 14.3804 21 14.3768 21 14.3731C21 14.3694 21 14.3657 21 14.362C21 14.3584 21 14.3547 21 14.351C21 14.3473 21 14.3437 21 14.34C21 14.3363 21 14.3326 21 14.329C21 14.3253 21 14.3216 21 14.3179C21 14.3143 21 14.3106 21 14.3069C21 14.3033 21 14.2996 21 14.2959C21 14.2922 21 14.2886 21 14.2849C21 14.2812 21 14.2776 21 14.2739C21 14.2702 21 14.2665 21 14.2629C21 14.2592 21 14.2555 21 14.2519C21 14.2482 21 14.2445 21 14.2409C21 14.2372 21 14.2335 21 14.2299C21 14.2262 21 14.2225 21 14.2189C21 14.2152 21 14.2116 21 14.2079C21 14.2042 21 14.2006 21 14.1969C21 14.1932 21 14.1896 21 14.1859C21 14.1822 21 14.1786 21 14.1749C21 14.1713 21 14.1676 21 14.1639C21 14.1603 21 14.1566 21 14.153C21 14.1493 21 14.1457 21 14.142C21 14.1383 21 14.1347 21 14.131C21 14.1274 21 14.1237 21 14.1201C21 14.1164 21 14.1128 21 14.1091C21 14.1054 21 14.1018 21 14.0981C21 14.0945 21 14.0908 21 14.0872C21 14.0835 21 14.0799 21 14.0762C21 14.0726 21 14.0689 21 14.0653C21 14.0616 21 14.058 21 14.0543C21 14.0507 21 14.047 21 14.0434C21 14.0397 21 14.0361 21 14.0324C21 14.0288 21 14.0252 21 14.0215C21 14.0179 21 14.0142 21 14.0106C21 14.0069 21 14.0033 21 13.9996C21 13.996 21 13.9924 21 13.9887C21 13.9851 21 13.9814 21 13.9778C21 13.9742 21 13.9705 21 13.9669C21 13.9632 21 13.9596 21 13.956C21 13.9523 21 13.9487 21 13.9451C21 13.9414 21 13.9378 21 13.9342C21 13.9305 21 13.9269 21 13.9233C21 13.9196 21 13.916 21 13.9124C21 13.9087 21 13.9051 21 13.9015C21 13.8978 21 13.8942 21 13.8906C21 13.8869 21 13.8833 21 13.8797C21 13.8761 21 13.8724 21 13.8688C21 13.8652 21 13.8615 21 13.8579C21 13.8543 21 13.8507 21 13.847C21 13.8434 21 13.8398 21 13.8362C21 13.8326 21 13.8289 21 13.8253C21 13.8217 21 13.8181 21 13.8145C21 13.8108 21 13.8072 21 13.8036C21 13.8 21 13.7964 21 13.7927C21 13.7891 21 13.7855 21 13.7819C21 13.7783 21 13.7747 21 13.771C21 13.7674 21 13.7638 21 13.7602C21 13.7566 21 13.753 21 13.7494C21 13.7458 21 13.7421 21 13.7385C21 13.7349 21 13.7313 21 13.7277C21 13.7241 21 13.7205 21 13.7169C21 13.7133 21 13.7097 21 13.7061C21 13.7025 21 13.6989 21 13.6953C21 13.6917 21 13.6881 21 13.6844C21 13.6808 21 13.6772 21 13.6736C21 13.67 21 13.6664 21 13.6628C21 13.6592 21 13.6556 21 13.6521C21 13.6485 21 13.6449 21 13.6413C21 13.6377 21 13.6341 21 13.6305C21 13.6269 21 13.6233 21 13.6197C21 13.6161 21 13.6125 21 13.6089C21 13.6053 21 13.6017 21 13.5981C21 13.5946 21 13.591 21 13.5874C21 13.5838 21 13.5802 21 13.5766C21 13.573 21 13.5694 21 13.5659C21 13.5623 21 13.5587 21 13.5551C21 13.5515 21 13.5479 21 13.5444C21 13.5408 21 13.5372 21 13.5336C21 13.53 21 13.5265 21 13.5229C21 13.5193 21 13.5157 21 13.5122C21 13.5086 21 13.505 21 13.5014C21 13.4979 21 13.4943 21 13.4907C21 13.4871 21 13.4836 21 13.48C21 13.4764 21 13.4729 21 13.4693C21 13.4657 21 13.4621 21 13.4586C21 13.455 21 13.4514 21 13.4479C21 13.4443 21 13.4408 21 13.4372C21 13.4336 21 13.4301 21 13.4265C21 13.4229 21 13.4194 21 13.4158C21 13.4123 21 13.4087 21 13.4051C21 13.4016 21 13.398 21 13.3945C21 13.3909 21 13.3874 21 13.3838C21 13.3802 21 13.3767 21 13.3731C21 13.3696 21 13.366 21 13.3625C21 13.3589 21 13.3554 21 13.3518C21 13.3483 21 13.3447 21 13.3412C21 13.3376 21 13.3341 21 13.3305C21 13.327 21 13.3235 21 13.3199C21 13.3164 21 13.3128 21 13.3093C21 13.3057 21 13.3022 21 13.2987C21 13.2951 21 13.2916 21 13.288C21 13.2845 21 13.281 21 13.2774C21 13.2739 21 13.2704 21 13.2668C21 13.2633 21 13.2598 21 13.2562C21 13.2527 21 13.2492 21 13.2456C21 13.2421 21 13.2386 21 13.2351C21 13.2315 21 13.228 21 13.2245C21 13.2209 21 13.2174 21 13.2139C21 13.2104 21 13.2068 21 13.2033C21 13.1998 21 13.1963 21 13.1928C21 13.1892 21 13.1857 21 13.1822C21 13.1787 21 13.1752 21 13.1717C21 13.1681 21 13.1646 21 13.1611C21 13.1576 21 13.1541 21 13.1506C21 13.1471 21 13.1436 21 13.14C21 13.1365 21 13.133 21 13.1295C21 13.126 21 13.1225 21 13.119C21 13.1155 21 13.112 21 13.1085C21 13.105 21 13.1015 21 13.098C21 13.0945 21 13.091 21 13.0875C21 13.084 21 13.0805 21 13.077C21 13.0735 21 13.07 21 13.0665C21 13.063 21 13.0595 21 13.056C21 13.0525 21 13.049 21 13.0455C21 13.042 21 13.0386 21 13.0351C21 13.0316 21 13.0281 21 13.0246C21 13.0211 21 13.0176 21 13.0142C21 13.0107 21 13.0072 21 13.0037C21 13.0002 21 12.9967 21 12.9933H19ZM19 18.4953C19 19.0468 18.5531 19.4941 18 19.4941V21.4941C19.6561 21.4941 21 20.153 21 18.4953H19ZM15 18.4941C15 20.151 16.3431 21.4941 18 21.4941V19.4941C17.4477 19.4941 17 19.0464 17 18.4941H15ZM17.5 11.4941C18.3289 11.4941 19 12.1653 19 12.9933H21C21 11.0598 19.4325 9.49414 17.5 9.49414V11.4941Z" fill="white"/>
</svg>
