<svg width="24" height="24" viewBox="0 0 24 24" fill="none" xmlns="http://www.w3.org/2000/svg">
<path fill-rule="evenodd" clip-rule="evenodd" d="M16.944 6.10372C16.877 5.96749 16.9035 5.76871 16.9565 5.37117L17.2482 3.18349C17.2573 3.11523 17.3066 3.05916 17.3731 3.04133C18.1066 2.84479 18.8606 3.28009 19.0571 4.01361L19.3159 4.97953L19.3353 5.05198H19.3354C19.4078 5.32246 19.4441 5.4577 19.4191 5.57512C19.3972 5.6784 19.3431 5.77208 19.2646 5.84274C19.1754 5.92306 19.0401 5.9593 18.7697 6.03177L18.6972 6.05118L17.9566 6.24964C17.5692 6.35344 17.3755 6.40534 17.2317 6.35648C17.1061 6.31375 17.0026 6.22282 16.944 6.10372ZM15.2864 4.01771C15.3533 4.15394 15.3268 4.35272 15.2738 4.75026L15.0376 6.52176C15.0121 6.7129 14.9994 6.80848 14.9578 6.88733C14.921 6.95702 14.8683 7.01703 14.8039 7.06248C14.7311 7.1139 14.638 7.13886 14.4517 7.18877L14.3269 7.22221C13.9395 7.32601 13.7458 7.37791 13.6021 7.32904C13.4764 7.28632 13.3729 7.19539 13.3143 7.07628C13.2473 6.94005 13.2739 6.74128 13.3269 6.34374L13.5631 4.57224C13.5885 4.3811 13.6013 4.28552 13.6429 4.20667C13.6797 4.13698 13.7324 4.07696 13.7967 4.03152C13.8696 3.9801 13.9627 3.95514 14.149 3.90523L14.2738 3.87179C14.6612 3.76799 14.8549 3.71609 14.9986 3.76495C15.1243 3.80768 15.2278 3.89861 15.2864 4.01771ZM9.93338 5.54481L9.69718 7.31631V7.31632C9.64418 7.71385 9.61767 7.91262 9.68466 8.04885C9.74322 8.16796 9.84674 8.25889 9.9724 8.30161C10.1161 8.35048 10.3098 8.29858 10.6972 8.19478L10.822 8.16133C11.0083 8.11142 11.1014 8.08647 11.1743 8.03505C11.2386 7.9896 11.2914 7.92959 11.3281 7.8599C11.3697 7.78104 11.3825 7.68547 11.408 7.49432L11.6442 5.72283C11.6972 5.32528 11.7237 5.12651 11.6567 4.99028C11.5981 4.87118 11.4946 4.78025 11.3689 4.73752C11.2252 4.68865 11.0315 4.74056 10.6441 4.84436L10.5193 4.8778C10.333 4.92771 10.2399 4.95267 10.1671 5.00409C10.1027 5.04953 10.05 5.10954 10.0132 5.17923C9.97161 5.25809 9.95887 5.35366 9.93338 5.54481ZM8.02701 5.96285C8.09399 6.09908 8.06749 6.29785 8.01448 6.6954L7.77828 8.46689C7.7528 8.65804 7.74006 8.75361 7.69845 8.83247C7.66168 8.90216 7.60896 8.96217 7.5446 9.00761C7.47176 9.05904 7.37862 9.08399 7.19236 9.1339L6.47002 9.32745H17.9031C18.162 9.32742 18.4069 9.3274 18.613 9.34437C18.8374 9.36283 19.0929 9.40577 19.3477 9.53657C19.7061 9.72051 19.9975 10.014 20.1801 10.375C20.31 10.6317 20.3526 10.889 20.3709 11.115C20.3878 11.3226 20.3878 11.5693 20.3877 11.8301V16.1931V16.1932C20.3877 16.7361 20.3878 17.1968 20.3571 17.5747C20.3249 17.9714 20.2546 18.355 20.0694 18.7212C19.7894 19.2747 19.3426 19.7248 18.793 20.0068C18.4295 20.1934 18.0486 20.2642 17.6549 20.2966C17.2796 20.3275 16.8222 20.3275 16.2832 20.3274H8.49225C7.95327 20.3275 7.49584 20.3275 7.12058 20.2966C6.72682 20.2642 6.34593 20.1934 5.98243 20.0068C5.43287 19.7248 4.98607 19.2747 4.70606 18.7212C4.52085 18.355 4.45054 17.9714 4.41836 17.5747C4.3877 17.1967 4.38772 16.736 4.38773 16.1931V9.32745H4.39642C4.37504 9.25904 4.35282 9.17612 4.32542 9.07387L4.30601 9.00143L4.04719 8.0355C3.85065 7.30199 4.28595 6.54803 5.01946 6.35148L7.01445 5.81693C7.40184 5.71312 7.59554 5.66122 7.73927 5.71009C7.86493 5.75282 7.96844 5.84375 8.02701 5.96285ZM17.8734 11.1181C18.1726 11.1181 18.3435 11.1188 18.4683 11.1291C18.5135 11.1328 18.5401 11.1371 18.5535 11.1397C18.5674 11.149 18.5793 11.161 18.5886 11.175C18.5911 11.1885 18.5954 11.2153 18.5991 11.2608C18.6093 11.3866 18.61 11.5587 18.61 11.86V16.1577C18.61 16.7455 18.6093 17.1326 18.5852 17.4289C18.562 17.7148 18.5216 17.8366 18.4854 17.9082C18.3758 18.1248 18.201 18.3009 17.9859 18.4113C17.9148 18.4478 17.7939 18.4885 17.5101 18.5118C17.2159 18.5361 16.8317 18.5368 16.248 18.5368H8.52741C7.9438 18.5368 7.55956 18.5361 7.26535 18.5118C6.98152 18.4885 6.86063 18.4478 6.78952 18.4113C6.57448 18.3009 6.39964 18.1248 6.29007 17.9082C6.25384 17.8366 6.21343 17.7148 6.19024 17.4289C6.1662 17.1326 6.16551 16.7455 6.16551 16.1577V11.1181H17.8734Z" fill="white"/>
</svg>
