<svg width="24" height="24" viewBox="0 0 24 24" fill="none" xmlns="http://www.w3.org/2000/svg">
<path fill-rule="evenodd" clip-rule="evenodd" d="M17.3002 15.7497C17.2985 16.0056 17.293 16.2547 17.275 16.4774C17.2462 16.8358 17.1768 17.277 16.9516 17.7253C16.6443 18.3368 16.1539 18.8341 15.5508 19.1457C15.1087 19.3741 14.6736 19.4444 14.3201 19.4737C14.0018 19.5 13.6289 19.5 13.2599 19.4999H7.04109C6.6721 19.5 6.29914 19.5 5.98081 19.4737C5.62738 19.4444 5.19228 19.3741 4.75018 19.1457C4.14705 18.8341 3.65669 18.3368 3.34938 17.7253C3.12412 17.277 3.05477 16.8358 3.0259 16.4774C2.99989 16.1547 2.99995 15.7765 3.00001 15.4023V11.8468C2.99995 11.4726 2.99989 11.0945 3.0259 10.7717C3.05477 10.4133 3.12412 9.97212 3.34938 9.52384C3.65669 8.91227 4.14705 8.41506 4.75018 8.10345C5.19228 7.87504 5.62738 7.80473 5.98081 7.77545C6.20046 7.75725 6.44611 7.75164 6.69853 7.74993V7.69037C6.69853 7.66147 6.69843 7.63131 6.69832 7.60003C6.69731 7.29464 6.69595 6.88319 6.78367 6.50503C7.06207 5.30477 7.98632 4.3676 9.17003 4.0853C9.54297 3.99636 9.94875 3.99774 10.2499 3.99877C10.2808 3.99887 10.3105 3.99897 10.339 3.99897H16.175C16.6777 3.99892 17.1533 3.99887 17.5535 4.03203C17.9892 4.06813 18.4852 4.15206 18.98 4.40772C19.6759 4.76727 20.2417 5.34098 20.5963 6.04663C20.8485 6.54839 20.9312 7.05133 20.9668 7.49308C20.9995 7.89893 20.9995 8.38117 20.9995 8.89085L20.9994 11.9995C20.9994 12.0319 20.9996 12.0658 20.9997 12.101C21.001 12.447 21.0028 12.9149 20.8902 13.3407C20.5938 14.4623 19.7298 15.3384 18.6237 15.6389C18.2037 15.753 17.7432 15.7513 17.4018 15.75C17.3669 15.7498 17.3325 15.7497 17.3002 15.7497ZM17.3009 13.9996C17.7595 13.9996 17.9888 13.9996 18.177 13.9485C18.5305 13.8524 18.8304 13.629 19.0269 13.3287C19.1142 13.1954 19.181 13.0469 19.2231 12.8877C19.2735 12.697 19.2735 12.4645 19.2735 11.9995V8.94927C19.2735 7.8291 19.2735 7.26901 19.0585 6.84116C18.8694 6.46482 18.5676 6.15884 18.1964 5.96708C17.7745 5.74908 17.2221 5.74908 16.1174 5.74908H10.339C9.93452 5.74908 9.73227 5.74908 9.56519 5.78892C9.42876 5.82146 9.2998 5.87285 9.18108 5.94027C8.8244 6.14282 8.5602 6.49009 8.46379 6.90572C8.4245 7.07513 8.4245 7.28021 8.4245 7.69037H13.7504C14.9932 7.69037 15.6146 7.69037 16.0893 7.93562C16.5068 8.15135 16.8463 8.49558 17.0591 8.91897C17.3009 9.4003 17.3009 10.0304 17.3009 11.2906V12.1339C17.3009 12.1704 17.3009 12.207 17.3009 12.2437V13.9996ZM15.575 12.2995C15.575 11.3193 15.575 10.8292 15.3868 10.4549C15.2214 10.1256 14.9573 9.85785 14.6326 9.69006C14.2634 9.49931 13.78 9.49931 12.8134 9.49931H7.09303C6.26449 9.49931 5.85022 9.49931 5.53375 9.66281C5.25539 9.80663 5.02907 10.0361 4.88723 10.3184C4.72598 10.6393 4.72598 11.0593 4.72598 11.8995V15.3497C4.72598 16.1898 4.72598 16.6099 4.88723 16.9307C5.02907 17.213 5.25539 17.4425 5.53375 17.5863C5.85022 17.7498 6.26449 17.7498 7.09303 17.7498H13.2079C14.0365 17.7498 14.4507 17.7498 14.7672 17.5863C15.0456 17.4425 15.2719 17.213 15.4137 16.9307C15.575 16.6099 15.575 16.1898 15.575 15.3497V12.2995Z" fill="white"/>
</svg>
