<svg width="24" height="24" viewBox="0 0 24 24" fill="none" xmlns="http://www.w3.org/2000/svg">
<path d="M4.19083 15.327L4.84598 14.6718L4.19083 15.327ZM8.67111 19.8074L9.32629 19.1522L8.67111 19.8074ZM11.0379 20.8227L11.6931 21.4779L11.0379 20.8227ZM9.69441 20.8307L9.03924 21.4859L9.69441 20.8307ZM19.8092 8.66963L20.4644 8.01445L19.8092 8.66963ZM15.3289 4.18927L15.9841 3.5341L15.3289 4.18927ZM15.4802 5.65209L14.6146 5.32173L15.4802 5.65209ZM3.17584 12.9606L2.52067 12.3055L3.17584 12.9606ZM3.16791 14.3041L2.51276 14.9593L3.16791 14.3041ZM20.8323 9.69272L20.1772 10.3479L20.8323 9.69272ZM20.8244 11.0362L20.1692 10.3811L20.8244 11.0362ZM12.9623 3.17413L13.6175 3.8293L12.9623 3.17413ZM14.3058 3.16618L13.6506 3.82135L14.3058 3.16618ZM12.3071 2.51896L2.52067 12.3055L3.83102 13.6158L13.6175 3.8293L12.3071 2.51896ZM15.9841 3.5341L14.961 2.51101L13.6506 3.82135L14.6737 4.84444L15.9841 3.5341ZM16.6331 7.36541C16.2667 6.99898 16.1649 6.45675 16.3459 5.98245L14.6146 5.32173C14.1861 6.4445 14.4144 7.76741 15.3228 8.67575L16.6331 7.36541ZM18.0161 7.65262C17.5418 7.83363 16.9995 7.73184 16.6331 7.36541L15.3228 8.67575C16.2311 9.5841 17.554 9.81242 18.6768 9.38394L18.0161 7.65262ZM21.4875 9.03755L20.4644 8.01445L19.1541 9.3248L20.1772 10.3479L21.4875 9.03755ZM11.6931 21.4779L21.4796 11.6914L20.1692 10.3811L10.3827 20.1676L11.6931 21.4779ZM8.01594 20.4626L9.03924 21.4859L10.3496 20.1755L9.32629 19.1522L8.01594 20.4626ZM7.36697 16.6312C7.73337 16.9976 7.83516 17.5398 7.65412 18.0142L9.38543 18.6749C9.81393 17.5522 9.58569 16.2292 8.67731 15.3208L7.36697 16.6312ZM5.98399 16.344C6.45829 16.1629 7.00053 16.2647 7.36697 16.6312L8.67731 15.3208C7.76895 14.4125 6.44603 14.1842 5.32325 14.6126L5.98399 16.344ZM2.51276 14.9593L3.53567 15.9822L4.84598 14.6718L3.82307 13.6489L2.51276 14.9593ZM5.32325 14.6126C5.17048 14.671 5.02942 14.6922 4.93049 14.6864C4.83831 14.681 4.83167 14.6575 4.84598 14.6718L3.53567 15.9822C4.30151 16.748 5.38259 16.5735 5.98399 16.344L5.32325 14.6126ZM9.32629 19.1522C9.3406 19.1665 9.3171 19.1599 9.31167 19.0677C9.30584 18.9688 9.32712 18.8277 9.38543 18.6749L7.65412 18.0142C7.42459 18.6156 7.25011 19.6967 8.01594 20.4626L9.32629 19.1522ZM10.3827 20.1676C10.3776 20.1727 10.3735 20.1749 10.3706 20.1761C10.367 20.1776 10.363 20.1784 10.359 20.1784C10.3551 20.1784 10.3527 20.1777 10.352 20.1774C10.3519 20.1774 10.3514 20.1773 10.3496 20.1755L9.03924 21.4859C9.77717 22.2238 10.9654 22.2056 11.6931 21.4779L10.3827 20.1676ZM18.6768 9.38394C18.8296 9.32564 18.9706 9.30435 19.0696 9.31018C19.1617 9.31561 19.1684 9.33911 19.1541 9.3248L20.4644 8.01445C19.6986 7.24862 18.6175 7.42311 18.0161 7.65262L18.6768 9.38394ZM14.6737 4.84444C14.6594 4.83013 14.6829 4.83677 14.6883 4.92896C14.6942 5.02789 14.6729 5.16895 14.6146 5.32173L16.3459 5.98245C16.5754 5.38103 16.7499 4.29993 15.9841 3.5341L14.6737 4.84444ZM2.52067 12.3055C1.79296 13.0332 1.7748 14.2214 2.51276 14.9593L3.82307 13.6489C3.82124 13.6471 3.82122 13.6466 3.82119 13.6466C3.8209 13.6458 3.82014 13.6435 3.82016 13.6395C3.82019 13.6355 3.821 13.6315 3.82246 13.628C3.82369 13.625 3.82586 13.621 3.83102 13.6158L2.52067 12.3055ZM20.1772 10.3479C20.179 10.3497 20.179 10.3502 20.179 10.3503C20.1793 10.351 20.1801 10.3534 20.1801 10.3574C20.18 10.3613 20.1792 10.3653 20.1778 10.3689C20.1765 10.3719 20.1744 10.3759 20.1692 10.3811L21.4796 11.6914C22.2073 10.9637 22.2254 9.77547 21.4875 9.03755L20.1772 10.3479ZM13.6175 3.8293C13.6226 3.82415 13.6267 3.82197 13.6296 3.82075C13.6332 3.81928 13.6372 3.81847 13.6412 3.81845C13.6451 3.81842 13.6475 3.81918 13.6482 3.81947C13.6483 3.8195 13.6488 3.81953 13.6506 3.82135L14.961 2.51101C14.223 1.77308 13.0348 1.79126 12.3071 2.51896L13.6175 3.8293Z" fill="white"/>
<path d="M11.8351 9.04622L11.6114 9.26994C11.2209 9.66047 11.2209 10.2936 11.6114 10.6842L13.4731 12.5458C13.8636 12.9363 14.4967 12.9363 14.8873 12.5458L15.111 12.3221C15.5015 11.9316 15.5015 11.2984 15.111 10.9079L13.2493 9.04622C12.8588 8.6557 12.2256 8.6557 11.8351 9.04622Z" fill="white"/>
</svg>
